ISO-10303-21;
HEADER;
FILE_DESCRIPTION(('CATIA V5 STEP Exchange'),'2;1');

FILE_NAME('E:\\office\\CatiaProject\\_tmp_branch\\clipA_full.stp','2026-09-23T03:35:09+00:00',('none'),('none'),'CATIA Version 5 Release 20 GA (IN-10)','CATIA V5 STEP AP203','none');

FILE_SCHEMA(('CONFIG_CONTROL_DESIGN'));

ENDSEC;
/* file written by CATIA V5R20 */
DATA;
#5=PRODUCT('clipA','','',(#2)) ;
#1=APPLICATION_CONTEXT('configuration controlled 3D design of mechanical parts and assemblies') ;
#14=PRODUCT_DEFINITION('',' ',#6,#3) ;
#16=SECURITY_CLASSIFICATION(' ',' ',#15) ;
#15=SECURITY_CLASSIFICATION_LEVEL('unclassified') ;
#47=CARTESIAN_POINT(' ',(0.,0.,0.)) ;
#52=CARTESIAN_POINT('Axis2P3D Location',(0.,0.,-1.5)) ;
#57=CARTESIAN_POINT('Line Origine',(1.67798938511,-3.07153896662,-4.)) ;
#61=CARTESIAN_POINT('Vertex',(1.67798938511,-3.07153896662,-8.)) ;
#63=CARTESIAN_POINT('Vertex',(1.67798938511,-3.07153896662,0.)) ;
#66=CARTESIAN_POINT('Axis2P3D Location',(0.,0.,0.)) ;
#70=CARTESIAN_POINT('Vertex',(-1.67798938511,3.07153896662,0.)) ;
#73=CARTESIAN_POINT('Line Origine',(-1.67798938511,3.07153896662,-4.)) ;
#77=CARTESIAN_POINT('Vertex',(-1.67798938511,3.07153896662,-8.)) ;
#80=CARTESIAN_POINT('Axis2P3D Location',(0.,0.,-8.)) ;
#92=CARTESIAN_POINT('Axis2P3D Location',(0.,0.,0.)) ;
#97=CARTESIAN_POINT('Axis2P3D Location',(0.,0.,-8.)) ;
#109=CARTESIAN_POINT('Axis2P3D Location',(0.,0.,2.)) ;
#114=CARTESIAN_POINT('Line Origine',(2.39712769302,-4.38791280945,1.)) ;
#118=CARTESIAN_POINT('Vertex',(3.35597877023,-6.14307793323,0.)) ;
#120=CARTESIAN_POINT('Vertex',(1.43827661581,-2.63274768567,2.)) ;
#123=CARTESIAN_POINT('Axis2P3D Location',(0.,0.,2.)) ;
#127=CARTESIAN_POINT('Vertex',(-1.43827661581,2.63274768567,2.)) ;
#130=CARTESIAN_POINT('Line Origine',(-2.39712769302,4.38791280945,1.)) ;
#134=CARTESIAN_POINT('Vertex',(-3.35597877023,6.14307793323,0.)) ;
#137=CARTESIAN_POINT('Axis2P3D Location',(0.,0.,0.)) ;
#149=CARTESIAN_POINT('Axis2P3D Location',(0.,0.,2.)) ;
#154=CARTESIAN_POINT('Axis2P3D Location',(0.,0.,0.)) ;
#166=CARTESIAN_POINT('Axis2P3D Location',(0.,0.,-1.5)) ;
#171=CARTESIAN_POINT('Line Origine',(1.43827661581,-2.63274768567,3.5)) ;
#175=CARTESIAN_POINT('Vertex',(1.43827661581,-2.63274768567,5.)) ;
#178=CARTESIAN_POINT('Axis2P3D Location',(0.,0.,5.)) ;
#182=CARTESIAN_POINT('Vertex',(-1.43827661581,2.63274768567,5.)) ;
#185=CARTESIAN_POINT('Line Origine',(-1.43827661581,2.63274768567,3.5)) ;
#197=CARTESIAN_POINT('Axis2P3D Location',(0.,0.,5.)) ;
#209=CARTESIAN_POINT('Axis2P3D Location',(0.,3.5,-8.)) ;
#219=CARTESIAN_POINT('Axis2P3D Location',(0.,7.,1.7763568394E-015)) ;
#233=CARTESIAN_POINT('Axis2P3D Location',(0.,0.,5.)) ;
#53=DIRECTION('Axis2P3D Direction',(0.,0.,1.)) ;
#54=DIRECTION('Axis2P3D XDirection',(-0.479425538604,0.87758256189,0.)) ;
#58=DIRECTION('Vector Direction',(0.,0.,1.)) ;
#67=DIRECTION('Axis2P3D Direction',(0.,0.,1.)) ;
#74=DIRECTION('Vector Direction',(0.,0.,1.)) ;
#81=DIRECTION('Axis2P3D Direction',(0.,0.,1.)) ;
#93=DIRECTION('Axis2P3D Direction',(0.,0.,1.)) ;
#98=DIRECTION('Axis2P3D Direction',(0.,0.,1.)) ;
#110=DIRECTION('Axis2P3D Direction',(-0.,-0.,-1.)) ;
#111=DIRECTION('Axis2P3D XDirection',(-0.479425538604,0.87758256189,0.)) ;
#115=DIRECTION('Vector Direction',(0.428811237787,-0.784933705702,-0.4472135955)) ;
#124=DIRECTION('Axis2P3D Direction',(0.,0.,-1.)) ;
#131=DIRECTION('Vector Direction',(-0.428811237787,0.784933705702,-0.4472135955)) ;
#138=DIRECTION('Axis2P3D Direction',(0.,0.,-1.)) ;
#150=DIRECTION('Axis2P3D Direction',(0.,0.,-1.)) ;
#155=DIRECTION('Axis2P3D Direction',(0.,0.,-1.)) ;
#167=DIRECTION('Axis2P3D Direction',(0.,0.,1.)) ;
#168=DIRECTION('Axis2P3D XDirection',(-0.479425538604,0.87758256189,0.)) ;
#172=DIRECTION('Vector Direction',(0.,0.,1.)) ;
#179=DIRECTION('Axis2P3D Direction',(0.,0.,1.)) ;
#186=DIRECTION('Vector Direction',(0.,0.,1.)) ;
#198=DIRECTION('Axis2P3D Direction',(0.,0.,1.)) ;
#210=DIRECTION('Axis2P3D Direction',(0.,0.,1.)) ;
#211=DIRECTION('Axis2P3D XDirection',(1.,0.,0.)) ;
#220=DIRECTION('Axis2P3D Direction',(0.,0.,1.)) ;
#221=DIRECTION('Axis2P3D XDirection',(1.,0.,0.)) ;
#234=DIRECTION('Axis2P3D Direction',(0.,0.,1.)) ;
#235=DIRECTION('Axis2P3D XDirection',(1.,0.,0.)) ;
#48=AXIS2_PLACEMENT_3D(' ',#47,$,$) ;
#55=AXIS2_PLACEMENT_3D('Cylinder Axis2P3D',#52,#53,#54) ;
#68=AXIS2_PLACEMENT_3D('Circle Axis2P3D',#66,#67,$) ;
#82=AXIS2_PLACEMENT_3D('Circle Axis2P3D',#80,#81,$) ;
#94=AXIS2_PLACEMENT_3D('Circle Axis2P3D',#92,#93,$) ;
#99=AXIS2_PLACEMENT_3D('Circle Axis2P3D',#97,#98,$) ;
#112=AXIS2_PLACEMENT_3D('Cone Axis2P3D',#109,#110,#111) ;
#125=AXIS2_PLACEMENT_3D('Circle Axis2P3D',#123,#124,$) ;
#139=AXIS2_PLACEMENT_3D('Circle Axis2P3D',#137,#138,$) ;
#151=AXIS2_PLACEMENT_3D('Circle Axis2P3D',#149,#150,$) ;
#156=AXIS2_PLACEMENT_3D('Circle Axis2P3D',#154,#155,$) ;
#169=AXIS2_PLACEMENT_3D('Cylinder Axis2P3D',#166,#167,#168) ;
#180=AXIS2_PLACEMENT_3D('Circle Axis2P3D',#178,#179,$) ;
#199=AXIS2_PLACEMENT_3D('Circle Axis2P3D',#197,#198,$) ;
#212=AXIS2_PLACEMENT_3D('Plane Axis2P3D',#209,#210,#211) ;
#222=AXIS2_PLACEMENT_3D('Plane Axis2P3D',#219,#220,#221) ;
#236=AXIS2_PLACEMENT_3D('Plane Axis2P3D',#233,#234,#235) ;
#40=PRODUCT_DEFINITION_SHAPE(' ',' ',#14) ;
#31=APPROVAL_PERSON_ORGANIZATION(#25,#21,#19) ;
#25=PERSON_AND_ORGANIZATION(#22,#23) ;
#22=PERSON(' ',' ',' ',$,$,$) ;
#23=ORGANIZATION(' ',' ',' ') ;
#21=APPROVAL(#20,' ') ;
#20=APPROVAL_STATUS('not_yet_approved') ;
#19=APPROVAL_ROLE('APPROVER') ;
#13=DATE_AND_TIME(#11,#12) ;
#12=LOCAL_TIME(11,35,9.,#10) ;
#10=COORDINATED_UNIVERSAL_TIME_OFFSET(0,0,.AHEAD.) ;
#86=ORIENTED_EDGE('',*,*,#65,.T.) ;
#87=ORIENTED_EDGE('',*,*,#72,.F.) ;
#88=ORIENTED_EDGE('',*,*,#79,.F.) ;
#89=ORIENTED_EDGE('',*,*,#84,.T.) ;
#103=ORIENTED_EDGE('',*,*,#79,.T.) ;
#104=ORIENTED_EDGE('',*,*,#96,.F.) ;
#105=ORIENTED_EDGE('',*,*,#65,.F.) ;
#106=ORIENTED_EDGE('',*,*,#101,.T.) ;
#143=ORIENTED_EDGE('',*,*,#122,.T.) ;
#144=ORIENTED_EDGE('',*,*,#129,.F.) ;
#145=ORIENTED_EDGE('',*,*,#136,.F.) ;
#146=ORIENTED_EDGE('',*,*,#141,.T.) ;
#160=ORIENTED_EDGE('',*,*,#136,.T.) ;
#161=ORIENTED_EDGE('',*,*,#153,.F.) ;
#162=ORIENTED_EDGE('',*,*,#122,.F.) ;
#163=ORIENTED_EDGE('',*,*,#158,.T.) ;
#191=ORIENTED_EDGE('',*,*,#177,.T.) ;
#192=ORIENTED_EDGE('',*,*,#184,.F.) ;
#193=ORIENTED_EDGE('',*,*,#189,.F.) ;
#194=ORIENTED_EDGE('',*,*,#129,.T.) ;
#203=ORIENTED_EDGE('',*,*,#189,.T.) ;
#204=ORIENTED_EDGE('',*,*,#201,.F.) ;
#205=ORIENTED_EDGE('',*,*,#177,.F.) ;
#206=ORIENTED_EDGE('',*,*,#153,.T.) ;
#215=ORIENTED_EDGE('',*,*,#101,.F.) ;
#216=ORIENTED_EDGE('',*,*,#84,.F.) ;
#225=ORIENTED_EDGE('',*,*,#141,.F.) ;
#226=ORIENTED_EDGE('',*,*,#158,.F.) ;
#229=ORIENTED_EDGE('',*,*,#96,.T.) ;
#230=ORIENTED_EDGE('',*,*,#72,.T.) ;
#239=ORIENTED_EDGE('',*,*,#201,.T.) ;
#240=ORIENTED_EDGE('',*,*,#184,.T.) ;
#231=FACE_BOUND('',#228,.T.) ;
#51=CLOSED_SHELL('Closed Shell',(#91,#108,#148,#165,#196,#208,#218,#232,#242)) ;
#59=VECTOR('Line Direction',#58,1.) ;
#75=VECTOR('Line Direction',#74,1.) ;
#116=VECTOR('Line Direction',#115,1.) ;
#132=VECTOR('Line Direction',#131,1.) ;
#173=VECTOR('Line Direction',#172,1.) ;
#187=VECTOR('Line Direction',#186,1.) ;
#244=ADVANCED_BREP_SHAPE_REPRESENTATION('NONE',(#243),#46) ;
#49=SHAPE_REPRESENTATION(' ',(#48),#46) ;
#91=ADVANCED_FACE('\X2\96F64EF651E04F554F53\X0\',(#90),#56,.T.) ;
#108=ADVANCED_FACE('\X2\96F64EF651E04F554F53\X0\',(#107),#56,.T.) ;
#148=ADVANCED_FACE('\X2\96F64EF651E04F554F53\X0\',(#147),#113,.T.) ;
#165=ADVANCED_FACE('\X2\96F64EF651E04F554F53\X0\',(#164),#113,.T.) ;
#196=ADVANCED_FACE('\X2\96F64EF651E04F554F53\X0\',(#195),#170,.T.) ;
#208=ADVANCED_FACE('\X2\96F64EF651E04F554F53\X0\',(#207),#170,.T.) ;
#218=ADVANCED_FACE('\X2\96F64EF651E04F554F53\X0\',(#217),#213,.F.) ;
#232=ADVANCED_FACE('\X2\96F64EF651E04F554F53\X0\',(#227,#231),#223,.F.) ;
#242=ADVANCED_FACE('\X2\96F64EF651E04F554F53\X0\',(#241),#237,.T.) ;
#4=APPLICATION_PROTOCOL_DEFINITION('international standard','config_control_design',1994,#1) ;
#32=APPROVAL_DATE_TIME(#13,#21) ;
#243=MANIFOLD_SOLID_BREP('\X2\96F64EF651E04F554F53\X0\',#51) ;
#11=CALENDAR_DATE(2026,23,9) ;
#30=CC_DESIGN_APPROVAL(#21,(#16,#6,#14)) ;
#18=CC_DESIGN_DATE_AND_TIME_ASSIGNMENT(#13,#17,(#16)) ;
#29=CC_DESIGN_DATE_AND_TIME_ASSIGNMENT(#13,#28,(#14)) ;
#17=DATE_TIME_ROLE('classification_date') ;
#28=DATE_TIME_ROLE('creation_date') ;
#27=CC_DESIGN_PERSON_AND_ORGANIZATION_ASSIGNMENT(#25,#26,(#16)) ;
#33=CC_DESIGN_PERSON_AND_ORGANIZATION_ASSIGNMENT(#25,#34,(#6)) ;
#35=CC_DESIGN_PERSON_AND_ORGANIZATION_ASSIGNMENT(#25,#36,(#6,#14)) ;
#37=CC_DESIGN_PERSON_AND_ORGANIZATION_ASSIGNMENT(#25,#38,(#5)) ;
#26=PERSON_AND_ORGANIZATION_ROLE('classification_officer') ;
#34=PERSON_AND_ORGANIZATION_ROLE('design_supplier') ;
#36=PERSON_AND_ORGANIZATION_ROLE('creator') ;
#38=PERSON_AND_ORGANIZATION_ROLE('design_owner') ;
#39=CC_DESIGN_SECURITY_CLASSIFICATION(#16,(#6)) ;
#69=CIRCLE('generated circle',#68,3.5) ;
#83=CIRCLE('generated circle',#82,3.5) ;
#95=CIRCLE('generated circle',#94,3.5) ;
#100=CIRCLE('generated circle',#99,3.5) ;
#126=CIRCLE('generated circle',#125,3.) ;
#140=CIRCLE('generated circle',#139,7.) ;
#152=CIRCLE('generated circle',#151,3.) ;
#157=CIRCLE('generated circle',#156,7.) ;
#181=CIRCLE('generated circle',#180,3.) ;
#200=CIRCLE('generated circle',#199,3.) ;
#113=CONICAL_SURFACE('Cone',#112,3.,1.10714871779) ;
#245=SHAPE_REPRESENTATION_RELATIONSHIP(' ',' ',#49,#244) ;
#56=CYLINDRICAL_SURFACE('generated cylinder',#55,3.5) ;
#170=CYLINDRICAL_SURFACE('generated cylinder',#169,3.) ;
#3=DESIGN_CONTEXT(' ',#1,'design') ;
#65=EDGE_CURVE('',#62,#64,#60,.T.) ;
#72=EDGE_CURVE('',#71,#64,#69,.T.) ;
#79=EDGE_CURVE('',#78,#71,#76,.T.) ;
#84=EDGE_CURVE('',#78,#62,#83,.T.) ;
#96=EDGE_CURVE('',#64,#71,#95,.T.) ;
#101=EDGE_CURVE('',#62,#78,#100,.T.) ;
#122=EDGE_CURVE('',#119,#121,#117,.F.) ;
#129=EDGE_CURVE('',#128,#121,#126,.F.) ;
#136=EDGE_CURVE('',#135,#128,#133,.F.) ;
#141=EDGE_CURVE('',#135,#119,#140,.F.) ;
#153=EDGE_CURVE('',#121,#128,#152,.F.) ;
#158=EDGE_CURVE('',#119,#135,#157,.F.) ;
#177=EDGE_CURVE('',#121,#176,#174,.T.) ;
#184=EDGE_CURVE('',#183,#176,#181,.T.) ;
#189=EDGE_CURVE('',#128,#183,#188,.T.) ;
#201=EDGE_CURVE('',#176,#183,#200,.T.) ;
#85=EDGE_LOOP('',(#86,#87,#88,#89)) ;
#102=EDGE_LOOP('',(#103,#104,#105,#106)) ;
#142=EDGE_LOOP('',(#143,#144,#145,#146)) ;
#159=EDGE_LOOP('',(#160,#161,#162,#163)) ;
#190=EDGE_LOOP('',(#191,#192,#193,#194)) ;
#202=EDGE_LOOP('',(#203,#204,#205,#206)) ;
#214=EDGE_LOOP('',(#215,#216)) ;
#224=EDGE_LOOP('',(#225,#226)) ;
#228=EDGE_LOOP('',(#229,#230)) ;
#238=EDGE_LOOP('',(#239,#240)) ;
#90=FACE_OUTER_BOUND('',#85,.T.) ;
#107=FACE_OUTER_BOUND('',#102,.T.) ;
#147=FACE_OUTER_BOUND('',#142,.T.) ;
#164=FACE_OUTER_BOUND('',#159,.T.) ;
#195=FACE_OUTER_BOUND('',#190,.T.) ;
#207=FACE_OUTER_BOUND('',#202,.T.) ;
#217=FACE_OUTER_BOUND('',#214,.T.) ;
#227=FACE_OUTER_BOUND('',#224,.T.) ;
#241=FACE_OUTER_BOUND('',#238,.T.) ;
#45=UNCERTAINTY_MEASURE_WITH_UNIT(LENGTH_MEASURE(0.005),#41,'distance_accuracy_value','CONFUSED CURVE UNCERTAINTY') ;
#60=LINE('Line',#57,#59) ;
#76=LINE('Line',#73,#75) ;
#117=LINE('Line',#114,#116) ;
#133=LINE('Line',#130,#132) ;
#174=LINE('Line',#171,#173) ;
#188=LINE('Line',#185,#187) ;
#2=MECHANICAL_CONTEXT(' ',#1,'mechanical') ;
#24=PERSONAL_ADDRESS(' ',' ',' ',' ',' ',' ',' ',' ',' ',' ',' ',' ',(#22),' ') ;
#213=PLANE('Plane',#212) ;
#223=PLANE('Plane',#222) ;
#237=PLANE('Plane',#236) ;
#43=PLANE_ANGLE_MEASURE_WITH_UNIT(PLANE_ANGLE_MEASURE(0.0174532925199),#42) ;
#7=PRODUCT_CATEGORY('part',$) ;
#9=PRODUCT_CATEGORY_RELATIONSHIP(' ',' ',#7,#8) ;
#6=PRODUCT_DEFINITION_FORMATION_WITH_SPECIFIED_SOURCE('',' ',#5,.NOT_KNOWN.) ;
#8=PRODUCT_RELATED_PRODUCT_CATEGORY('detail',$,(#5)) ;
#50=SHAPE_DEFINITION_REPRESENTATION(#40,#49) ;
#62=VERTEX_POINT('',#61) ;
#64=VERTEX_POINT('',#63) ;
#71=VERTEX_POINT('',#70) ;
#78=VERTEX_POINT('',#77) ;
#119=VERTEX_POINT('',#118) ;
#121=VERTEX_POINT('',#120) ;
#128=VERTEX_POINT('',#127) ;
#135=VERTEX_POINT('',#134) ;
#176=VERTEX_POINT('',#175) ;
#183=VERTEX_POINT('',#182) ;
#41=(LENGTH_UNIT()NAMED_UNIT(*)SI_UNIT(.MILLI.,.METRE.)) ;
#42=(NAMED_UNIT(*)PLANE_ANGLE_UNIT()SI_UNIT($,.RADIAN.)) ;
#44=(NAMED_UNIT(*)SI_UNIT($,.STERADIAN.)SOLID_ANGLE_UNIT()) ;
#46=(GEOMETRIC_REPRESENTATION_CONTEXT(3)GLOBAL_UNCERTAINTY_ASSIGNED_CONTEXT((#45))GLOBAL_UNIT_ASSIGNED_CONTEXT((#41,#42,#44))REPRESENTATION_CONTEXT(' ',' ')) ;
ENDSEC;
END-ISO-10303-21;
